<svg height="479pt" viewBox="-15 0 479 479.72571" width="479pt" xmlns="http://www.w3.org/2000/svg"><path d="m.363281 359.726562c0 36.078126 14.03125 120 144 120h96c129.96875 0 144-83.921874 144-120 .441407-41.917968-5.394531-83.667968-17.320312-123.855468.824219-1.230469 1.28125-2.667969 1.320312-4.144532v-8c0-8.835937 7.164063-16 16-16 8.835938 0 16 7.164063 16 16v248c0 4.417969 3.582031 8 8 8h32c4.417969 0 8-3.582031 8-8v-248c.046875-25.339843-14.890625-48.3125-38.070312-58.554687-23.175781-10.242187-50.21875-5.816406-68.921875 11.28125-14.089844-25.101563-33.636719-46.714844-57.199219-63.246094 2.71875-5.429687 4.15625-11.410156 4.191406-17.480469.027344-22.082031 17.917969-39.972656 40-40h16v-16h-16c-20.898437.019532-40.046875 11.675782-49.664062 30.230469-6.652344-7.851562-16.097657-12.808593-26.335938-13.824219l18.648438-28c2.113281-3.171874 1.695312-7.398437-1-10.09375l-10.335938-10.3125c-10.816406-10.300781-27.8125-10.300781-38.625 0l-4.6875 4.6875-4.6875-4.6875c-10.816406-10.300781-27.8125-10.300781-38.625 0l-4.6875 4.6875-4.6875-4.6875c-10.816406-10.300781-27.8125-10.300781-38.625 0l-10.34375 10.34375c-2.699219 2.695313-3.117187 6.921876-1 10.09375l18.640625 28c-10.234375 1.027344-19.667968 5.984376-26.320312 13.824219-9.609375-18.566406-28.757813-30.234375-49.664063-30.261719h-16v16h16c22.078125.027344 39.972657 17.917969 40 40 .035157 6.070313 1.46875 12.050782 4.191407 17.480469-62.839844 42.910157-100.191407 134.125-100.191407 246.519531zm384-184c26.5.027344 47.972657 21.5 48 48v240h-16v-240c0-17.675781-14.328125-32-32-32s-32 14.324219-32 32h-16c.027344-26.5 21.5-47.972656 48-48zm-112-80c0 13.253907-10.746093 24-24 24-13.253906 0-24-10.746093-24-24 0-13.253906 10.746094-24 24-24 13.253907 0 24 10.746094 24 24zm-141.703125-70.984374 5.703125-5.695313c4.476563-4.28125 11.523438-4.28125 16 0l10.34375 10.34375c3.125 3.121094 8.1875 3.121094 11.3125 0l10.34375-10.34375c4.476563-4.28125 11.523438-4.28125 16 0l10.34375 10.34375c3.125 3.121094 8.1875 3.121094 11.3125 0l10.34375-10.34375c4.476563-4.28125 11.523438-4.28125 16 0l5.703125 5.703125-23.597656 35.40625c-6.132812 3.039062-11.390625 7.59375-15.265625 13.234375-5.996094-6.175781-14.234375-9.65625-22.839844-9.65625s-16.84375 3.480469-22.839843 9.65625c-3.878907-5.644531-9.136719-10.199219-15.273438-13.242187zm5.703125 46.984374c13.253907 0 24 10.746094 24 24 0 13.253907-10.746093 24-24 24-13.253906 0-24-10.746093-24-24 0-13.253906 10.746094-24 24-24zm-26 54.144532c11.773438 10.316406 28.503907 12.765625 42.746094 6.261718 14.238281-6.503906 23.339844-20.753906 23.253906-36.40625 0-8.835937 7.164063-16 16-16 8.835938 0 16 7.164063 16 16 .027344 22.078126 17.917969 39.972657 40 40 9.566407-.035156 18.796875-3.535156 25.984375-9.847656 23.496094 16.417969 42.699219 38.238282 56 63.628906-6.523437 10.222657-9.988281 22.09375-9.984375 34.21875v8c0 4.417969 3.582031 8 8 8h23.128907c11.636718 38.921876 17.324218 79.378907 16.871093 120 0 38.839844-16.632812 104-128 104h-96c-111.367187 0-128-65.160156-128-104 0-107.5625 35.0625-194.207031 94-233.855468zm0 0"/><path d="m192.363281 367.726562c-13.253906 0-24-10.746093-24-24 0-4.417968-3.582031-8-8-8h-32c-4.417969 0-8 3.582032-8 8 .035157 30.480469 19.261719 57.636719 48 67.800782v28.199218c0 4.417969 3.582031 8 8 8h32c4.417969 0 8-3.582031 8-8v-28.191406c33.050781-11.679687 52.875-45.476562 46.945313-80.023437-5.929688-34.550781-35.890625-59.796875-70.945313-59.785157-13.253906 0-24-10.746093-24-24 0-13.253906 10.746094-24 24-24 13.253907 0 24 10.746094 24 24 0 4.417969 3.582031 8 8 8h32c4.417969 0 8-3.582031 8-8 .027344-30.511718-19.21875-57.714843-48-67.847656v-28.152344c0-4.417968-3.582031-8-8-8h-32c-4.417969 0-8 3.582032-8 8v28.191407c-33.050781 11.679687-52.875 45.472656-46.945312 80.023437 5.929687 34.546875 35.890625 59.796875 70.945312 59.785156 13.253907 0 24 10.746094 24 24 0 13.253907-10.746093 24-24 24zm0-64c-28.195312.023438-52.003906-20.933593-55.558593-48.90625-3.554688-27.96875 14.253906-54.214843 41.558593-61.246093 3.53125-.914063 6-4.097657 6-7.746094v-26.101563h16v26.078126c-.003906 3.652343 2.46875 6.84375 6.007813 7.753906 21.867187 5.605468 38.210937 23.824218 41.421875 46.167968h-16.230469c-4.210938-20.625-23.683594-34.457031-44.542969-31.640624-20.859375 2.816406-35.96875 21.316406-34.558593 42.316406 1.410156 21.003906 18.851562 37.320312 39.902343 37.324218 28.191407-.019531 51.996094 20.9375 55.550781 48.90625 3.550782 27.96875-14.257812 54.214844-41.558593 61.246094-3.527344.914063-5.992188 4.097656-5.992188 7.742188v26.105468h-16v-26.105468c0-3.644532-2.464843-6.828125-5.992187-7.742188-21.84375-5.644531-38.175782-23.832031-41.441406-46.152344h16.234374c4.207032 20.621094 23.679688 34.457032 44.542969 31.640626 20.859375-2.816407 35.96875-21.316407 34.558594-42.320313-1.410156-21-18.855469-37.316406-39.902344-37.320313zm0 0"/></svg>